<svg width="371" height="774" viewBox="0 0 371 774" fill="none" xmlns="http://www.w3.org/2000/svg">
<circle r="9.16808" transform="matrix(-1 0 0 1 176.887 703.888)" fill="#394E77" stroke="#132953" stroke-width="3.44"/>
<path fill-rule="evenodd" clip-rule="evenodd" d="M314.136 127.924C331.022 206.26 377.38 194.599 359.353 287.549C356.529 302.113 348.111 314.952 336.658 324.381L314.35 342.748C286.124 365.986 244.76 363.553 219.454 337.165L214.71 332.219C214.725 332.477 214.695 331.959 214.71 332.219C186.249 329.062 118.409 330.964 100.958 309.87C85.2174 290.842 116.789 243.469 116.789 216.977L98.3797 115.603C98.3797 55.6592 154.909 2.42447 214.71 2.42447H235.141C289.566 10.7338 303.821 80.0737 314.136 127.924Z" fill="#351605"/>
<path d="M116.677 143.996C125.831 158.796 125.333 175.692 117.684 180.424C110.034 185.156 94.6401 178.089 85.4858 163.289C76.3314 148.489 71.0383 135.953 84.5327 126.828C96.3607 118.831 107.523 129.196 116.677 143.996Z" fill="#ECCBB7"/>
<path d="M172.338 289.102C175.318 287.497 179.311 279.264 180.934 275.348C186.951 274.775 199.043 273.973 199.272 275.348C199.559 277.067 205.576 284.804 212.452 289.961C215.578 292.306 203.337 295.992 191.822 295.405C180.807 294.844 170.517 290.082 172.338 289.102Z" fill="#E3C8B7"/>
<path d="M272.303 149.44C272.05 214.604 230.037 274.08 189.21 274.08C148.383 274.08 105.83 218.276 105.83 149.44C105.83 80.603 115.332 27.415 189.21 24.7999C253.965 22.5076 272.303 80.603 272.303 149.44Z" fill="#F5D0B9"/>
<path d="M99.5755 138.525C107.024 176.634 116.767 217.321 139.976 247.12C160.921 274.012 225.935 314.454 268.627 183.224" stroke="#670E00" stroke-width="3.43834" stroke-linecap="round" stroke-linejoin="round"/>
<path d="M162.856 121.79C165.528 119.417 144.627 115.527 142.659 114.361C132.31 111.161 126.059 114.556 120.7 115.773C115.34 116.99 115.142 117.444 116.012 117.226C120.596 116.08 132.19 117.191 136.928 117.799C141.666 118.408 159.516 124.756 162.856 121.79Z" fill="#670E00" stroke="#670E00" stroke-width="3.43834" stroke-linecap="round" stroke-linejoin="round"/>
<path d="M171.208 193.252C171.208 194.972 171.552 198.926 176.365 198.696C176.747 198.696 178.084 197.55 180.663 198.696C182.822 199.656 186.107 199.556 188.686 198.123" stroke="#670E00" stroke-width="3.43834" stroke-linecap="round" stroke-linejoin="round"/>
<path opacity="0.8" d="M207.31 231.371C206.193 245.502 181.836 253.111 171.781 230.501L207.31 231.371Z" fill="#E29090" stroke="#E29090" stroke-width="3.43834" stroke-linecap="round" stroke-linejoin="round"/>
<path opacity="0.8" d="M205.591 229.044C204.582 242.61 182.582 249.914 173.5 228.209L205.591 229.044Z" fill="#E29090" stroke="#E29090" stroke-width="3.43834" stroke-linecap="round" stroke-linejoin="round"/>
<path opacity="0.8" d="M187.951 220.758C179.915 215.484 174.557 219.829 171.781 223.548C183.622 224.985 205.591 226.489 205.591 224.055C195.791 214.318 190.646 218.476 187.951 220.758Z" fill="#E29090" stroke="#E29090" stroke-width="3.43834" stroke-linecap="round" stroke-linejoin="round"/>
<path d="M162.325 226.776C169.083 227.888 168.296 225.689 178.371 226.203C182.271 226.402 183.727 228.153 188.686 228.495C192.395 228.752 194.061 227.141 198.428 227.063C205.545 226.935 215.089 228.035 217.052 226.776M217.052 226.776L214.76 224.197M217.052 226.776C217.816 227.445 219.402 228.782 219.631 228.782" stroke="#670E00" stroke-width="3.43834" stroke-linecap="round" stroke-linejoin="round"/>
<path d="M179.231 246.547C182.955 247.979 184.587 248.496 189.546 248.839C193.254 249.095 195.849 248.839 199.288 247.406" stroke="#670E00" stroke-width="3.43834" stroke-linecap="round" stroke-linejoin="round"/>
<path d="M211.608 137.379C216.288 133.845 224.215 126.778 235.104 128.497" stroke="#670E00" stroke-width="1.71917" stroke-linecap="round" stroke-linejoin="round"/>
<path d="M162.612 137.379C157.932 133.845 150.005 126.778 139.116 128.497" stroke="#670E00" stroke-width="1.71917" stroke-linecap="round" stroke-linejoin="round"/>
<path d="M246.175 135.249C228.583 128.301 217.396 136.172 212.127 143.727C210.547 145.993 211.966 148.937 214.68 149.452C232.285 152.796 242.885 146.564 247.798 140.825C249.425 138.926 248.5 136.167 246.175 135.249Z" fill="#F8F0EE" stroke="#670E00" stroke-width="3.43834" stroke-linecap="round" stroke-linejoin="round"/>
<path d="M127.186 135.249C144.777 128.301 155.964 136.172 161.233 143.727C162.813 145.993 161.394 148.937 158.68 149.452C141.075 152.796 130.475 146.564 125.562 140.825C123.936 138.926 124.86 136.167 127.186 135.249Z" fill="#F8F0EE" stroke="#670E00" stroke-width="3.43834" stroke-linecap="round" stroke-linejoin="round"/>
<circle cx="226.794" cy="141.677" r="8.0228" fill="#670E00" stroke="#670E00" stroke-width="3.43834" stroke-linecap="round" stroke-linejoin="round"/>
<circle cx="146.566" cy="141.677" r="8.0228" fill="#670E00" stroke="#670E00" stroke-width="3.43834" stroke-linecap="round" stroke-linejoin="round"/>
<path d="M245.705 135.66L248.284 133.655" stroke="#670E00" stroke-width="6.87668" stroke-linecap="round" stroke-linejoin="round"/>
<path d="M128.515 135.087L125.936 133.081" stroke="#670E00" stroke-width="6.87668" stroke-linecap="round" stroke-linejoin="round"/>
<path d="M107.312 180.645C97.4744 179.881 79.8624 171.19 88.1145 142.537C86.3953 123.626 96.9968 122.48 99.5756 138.239" stroke="#670E00" stroke-width="3.43834" stroke-linecap="round" stroke-linejoin="round"/>
<path d="M94.9908 149.414C92.8896 152.47 90.2345 160.302 96.4235 167.178" stroke="#670E00" stroke-width="3.43834" stroke-linecap="round" stroke-linejoin="round"/>
<path opacity="0.2" d="M236.25 181.791L241.883 177.879C244.965 175.739 247.531 172.937 249.393 169.679L252.295 164.6" stroke="#E592A6" stroke-width="25.7876" stroke-linecap="round" stroke-linejoin="round"/>
<path opacity="0.2" d="M199.575 150.152L201.592 143.597C202.696 140.01 204.586 136.714 207.125 133.951L211.083 129.643" stroke="#E592A6" stroke-width="12.6073" stroke-linecap="round" stroke-linejoin="round"/>
<path opacity="0.2" d="M174.407 150.152L172.391 143.597C171.287 140.01 169.397 136.714 166.858 133.951L162.9 129.643" stroke="#E592A6" stroke-width="12.6073" stroke-linecap="round" stroke-linejoin="round"/>
<path opacity="0.2" d="M145.993 185.803L138.543 182.632C134.597 180.953 131.145 178.296 128.512 174.911L126.509 172.336" stroke="#E592A6" stroke-width="25.7876" stroke-linecap="round" stroke-linejoin="round"/>
<circle cx="199.574" cy="230.788" r="2.0057" fill="white"/>
<path d="M250.95 437.839V382.539C244.647 345.576 219.789 389.732 227.452 398.298C232.323 403.742 230.684 438.544 232.039 468.497C233.342 497.305 232.613 503.041 232.613 503.602C232.613 504.749 233.186 505.035 233.472 506.181C233.759 507.327 234.905 509.333 235.191 502.456C235.478 495.58 237.197 494.433 238.63 493.86C240.062 493.287 240.635 499.211 240.635 501.024C240.635 503.602 239.489 506.181 237.77 511.052C236.394 514.949 237.197 518.406 237.77 519.648C240.922 515.923 247.856 508.015 250.377 506.181C253.529 503.889 245.22 482.399 245.506 478.388C245.793 474.377 250.95 443.569 250.95 437.839Z" fill="#FEDECA" stroke="#E1C3B0" stroke-width="3.43834" stroke-linecap="round" stroke-linejoin="round"/>
<circle cx="231.092" cy="137.379" r="2.0057" fill="white"/>
<circle cx="151.437" cy="139.672" r="2.0057" fill="white"/>
<path d="M194.703 198.41L195.276 198.696" stroke="#670E00" stroke-width="3.43834" stroke-linecap="round" stroke-linejoin="round"/>
<path fill-rule="evenodd" clip-rule="evenodd" d="M108.768 180.221C116.719 224.89 170.515 289.221 176.153 329.587C178.323 345.124 163.307 354.851 148.12 358.786L124.402 364.932C97.3364 371.946 68.6945 362.159 51.5798 340.05L26.2952 307.386C17.6538 296.222 12.3824 282.651 12.3001 268.535C11.7094 167.201 57.5016 211.779 60.993 109.431C61.2818 100.964 62.4352 92.4007 64.7461 84.2499C65.2117 82.6073 65.7599 81.1283 66.6473 79.6492L68.1264 76.3354C92.1652 27.1605 122.662 2.57306 159.618 2.57306C215.052 2.57306 299.557 17.7591 295.832 145.837C260.37 151.335 236.249 61.6221 223.975 42.6912C223.437 41.8619 222.282 42.2327 222.109 43.2059C217.287 70.3591 188.561 77.7531 175.49 81.3684C155.147 86.9953 143.53 81.6853 138.84 90.5373C134.66 98.4253 129.992 105.803 121.336 111.167C116.808 107.491 107.607 136.382 101.318 136.382C86.777 136.382 87.2779 142.685 86.1314 155.006C86.1314 169.536 92.5075 179.934 107.048 179.934C107.449 179.934 108.371 180.238 108.768 180.221Z" fill="#351605"/>
<path d="M162.039 81.8306C179.591 85.0346 214.717 67.7579 221.366 31.3332C224.843 42.4116 228.788 67.0187 216.752 76.8198" stroke="#670E00" stroke-width="3.43834" stroke-linecap="round" stroke-linejoin="round"/>
<path d="M234.244 32.2234C235.726 40.6526 243.418 60.9345 262.324 74.6297" stroke="#670E00" stroke-width="3.43834" stroke-linecap="round" stroke-linejoin="round"/>
<path d="M262.897 55.7188C263.865 61.1863 268.888 74.3422 281.235 83.2255" stroke="#670E00" stroke-width="3.43834" stroke-linecap="round" stroke-linejoin="round"/>
<path d="M145.141 79.9261C139.155 92.6252 121.891 117.79 100.722 116.855" stroke="#670E00" stroke-width="3.43834" stroke-linecap="round" stroke-linejoin="round"/>
<path d="M294.686 107.813C301.992 112.234 312.653 119.274 312.653 171.973C314.559 212.642 357.848 189.156 347.344 277.366" stroke="#670E00" stroke-width="3.43834" stroke-linecap="round" stroke-linejoin="round"/>
<path d="M159.46 15.0317L126.223 23.0545" stroke="#670E00" stroke-width="3.43834" stroke-linecap="round" stroke-linejoin="round"/>
<path d="M262.037 15.3183C251.401 7.26652 240.385 3.11301 227.08 2.13807C211.889 1.02486 191.551 7.00893 191.551 7.00893" stroke="#670E00" stroke-width="3.43834" stroke-linecap="round" stroke-linejoin="round"/>
<path d="M121.352 15.3183C131.988 7.26652 143.004 3.11301 156.308 2.13807C171.499 1.02486 191.838 7.00893 191.838 7.00893" stroke="#670E00" stroke-width="3.43834" stroke-linecap="round" stroke-linejoin="round"/>
<path d="M289.264 196.691L294.064 230.544" stroke="#670E00" stroke-width="3.43834" stroke-linecap="round" stroke-linejoin="round"/>
<path d="M298.347 298.272L295.773 316.264" stroke="#670E00" stroke-width="3.43834" stroke-linecap="round" stroke-linejoin="round"/>
<path d="M266.586 235.086C266.586 235.086 264.456 245.691 264.517 252.564C264.632 265.618 272.826 284.942 272.826 284.942" stroke="#670E00" stroke-width="3.43834" stroke-linecap="round" stroke-linejoin="round"/>
<path d="M168.629 27.3524C127.942 35.3752 105.559 88.7549 97.1586 93.3199C89.6669 99.0365 88.4593 104.327 89.6349 107.687" stroke="#670E00" stroke-width="3.43834" stroke-linecap="round" stroke-linejoin="round"/>
<path d="M88.9738 78.313C81.6676 82.735 61.7957 125.877 61.7956 178.576C59.8894 219.245 16.6006 195.76 27.1052 283.969" stroke="#670E00" stroke-width="3.43834" stroke-linecap="round" stroke-linejoin="round"/>
<path d="M89.3688 257.127L84.5687 290.98" stroke="#670E00" stroke-width="3.43834" stroke-linecap="round" stroke-linejoin="round"/>
<path d="M115.695 296.551L115.08 315.751" stroke="#670E00" stroke-width="3.43834" stroke-linecap="round" stroke-linejoin="round"/>
<path d="M68.8537 216.748C68.8537 216.748 70.984 227.353 70.9231 234.226C70.8075 247.28 62.6138 266.604 62.6138 266.604" stroke="#670E00" stroke-width="3.43834" stroke-linecap="round" stroke-linejoin="round"/>
<path d="M180.377 274.34C180.186 277.969 177.855 286.26 170.062 290.386" stroke="#670E00" stroke-width="3.43834" stroke-linecap="round" stroke-linejoin="round"/>
<path d="M199.287 274.34C199.479 277.969 204.101 284.827 211.895 288.953" stroke="#670E00" stroke-width="3.43834" stroke-linecap="round" stroke-linejoin="round"/>
<path d="M204.695 123.228C202.023 120.855 222.534 116.483 224.502 115.317C234.851 112.117 241.492 115.994 246.852 117.211C252.211 118.427 256.89 120.119 256.02 119.901C251.436 118.755 236.653 116.602 231.914 117.211C227.176 117.819 208.035 126.194 204.695 123.228Z" fill="#670E00" stroke="#670E00" stroke-width="3.43834" stroke-linecap="round" stroke-linejoin="round"/>
<path d="M223.682 712.442C224.14 710.15 237.43 545.109 229.699 455.426C225.401 405.57 137.149 442.532 137.149 454.566C134.571 543.39 164.484 702.414 164.942 704.706C165.515 707.571 182.421 704.992 182.994 700.121C183.567 695.25 189.583 519.035 189.583 509.58L208.209 719.892C208.782 724.763 223.109 715.307 223.682 712.442Z" fill="#4E638B" stroke="#384867" stroke-width="3.43834" stroke-linecap="round" stroke-linejoin="round"/>
<path d="M206 733.072C206.382 737.084 207.089 746.138 206.86 750.264C206.419 758.19 217.604 759.391 223.529 754.109C241.788 737.832 265.311 716.098 265.311 713.015C265.025 710.15 258.435 705.852 257.002 704.993C255.569 704.133 250.412 702.987 243.535 703.846C239.15 704.395 235.322 707.65 233.128 710.158C232.324 711.076 230.971 711.35 229.813 710.964C226.834 709.971 222.624 710.109 220.613 715.594C217.461 724.19 212.304 722.184 210.584 721.038C207.532 719.003 206 725.606 206 729.274V733.072Z" fill="#6F7E9B" stroke="#132953" stroke-width="3.43834"/>
<path d="M244.395 755.708C249.266 749.405 252.992 750.522 258.435 744.534C261.96 740.656 264.022 736.968 265.178 733.646C265.372 733.087 265.541 732.538 265.687 732.001C266.523 729.087 267.604 724.301 267.604 720.179C267.604 713.875 264.453 711.869 261.014 709.291C257.576 706.712 248.407 706.998 244.395 709.29C241.186 711.124 235.895 715.881 234.08 718.746C232.838 720.752 229.332 727.915 227.728 733.646C225.722 740.809 222.619 742.814 218.608 746.826C217.038 748.396 215.723 750.031 214.712 751.447C213.175 753.601 212.514 756.214 212.477 758.86C212.448 760.919 212.462 763.207 212.591 764.877C212.82 767.857 218.417 770.512 221.186 771.467C226.344 774.619 238.71 763.065 244.395 755.708Z" fill="#183368"/>
<path d="M221.186 771.467C226.344 774.619 238.71 763.065 244.395 755.708C249.266 749.405 252.992 750.522 258.435 744.534C261.96 740.656 264.022 736.968 265.178 733.646M221.186 771.467C216.029 768.316 214.596 762.298 216.029 758.287C217.461 754.276 224.052 748.545 225.484 746.826C226.917 745.107 230.928 742.528 231.215 739.949C231.501 737.37 233.221 732.499 234.08 729.921C234.643 728.232 236.78 724.893 238.323 722.636C238.924 721.757 239.452 720.833 240.016 719.93C242.085 716.615 246.539 711.869 252.704 711.869C261.587 711.869 265.312 716.167 265.598 718.746C265.797 720.532 267.781 726.164 265.178 733.646M221.186 771.467C218.417 770.512 212.82 767.857 212.591 764.877C212.462 763.207 212.448 760.919 212.477 758.86C212.514 756.214 213.175 753.601 214.712 751.447C215.723 750.031 217.038 748.396 218.608 746.826C222.619 742.814 225.722 740.809 227.728 733.646C229.332 727.915 232.838 720.752 234.08 718.746C235.895 715.881 241.186 711.124 244.395 709.29C248.407 706.998 257.576 706.712 261.014 709.291C264.453 711.869 267.604 713.875 267.604 720.179C267.604 725.222 265.987 731.258 265.178 733.646" stroke="#132953" stroke-width="3.43834"/>
<path d="M172.338 286.236C187.238 293.801 201.66 289.388 209.3 286.236C253.14 293.113 264.043 374.052 264.616 376.917C265.163 379.653 228.356 383.173 228.271 391.716L228.513 392.963C231.493 400.527 233.002 438.139 233.384 455.999C202.63 458.387 140.606 461.73 138.543 455.999C136.48 450.269 139.403 411.587 141.122 392.963L119 381.5C117.624 329.696 153.905 295.883 172.338 286.236Z" fill="#9FAEE3"/>
<path d="M141.122 392.963L119 381.5C117.624 329.696 153.905 295.883 172.338 286.236C187.238 293.801 201.66 289.388 209.3 286.236C253.14 293.113 264.043 374.052 264.616 376.917C265.189 379.783 224.788 383.507 228.513 392.963M141.122 392.963C139.403 411.587 136.48 450.269 138.543 455.999C140.606 461.73 202.63 458.387 233.384 455.999C233.002 438.139 231.493 400.527 228.513 392.963M141.122 392.963L144.274 376.917M228.513 392.963L224.502 372.333" stroke="#7285CA" stroke-width="3.43834" stroke-linecap="round" stroke-linejoin="round"/>
<path d="M120.456 429.214C120.456 424.629 117 398.311 117 381.788C123.303 344.826 140.8 368.619 140.8 388.527C140.8 395.831 137.266 437.793 135.911 467.746C134.609 496.555 140.818 512.181 140.818 512.742C140.818 513.889 138.508 518.324 138.221 519.47C137.935 520.616 136.789 522.622 136.502 515.745C136.215 508.869 134.496 504.284 133.064 503.711C131.631 503.138 128.766 509.728 128.193 511.448C127.62 513.167 131.344 516.892 133.064 521.763C134.439 525.659 133.637 529.117 133.064 530.358C129.912 526.634 122.978 518.725 120.456 516.892C117.304 514.599 125.327 489.385 125.041 485.373C124.754 481.362 120.456 434.944 120.456 429.214Z" fill="#FEDECA" stroke="#E1C3B0" stroke-width="3.43834" stroke-linecap="round" stroke-linejoin="round"/>
<path d="M154.002 370.189C145.12 355.863 178.64 291.152 170.999 288C127.389 294.841 111.745 373.226 111.018 376.866L111.008 376.917C110.435 379.782 149.991 387.094 149.991 387.094L154.002 370.189Z" fill="#9FAEE3"/>
<path d="M171 286.5C124.5 304.5 111.579 374.052 111.006 376.917C110.433 379.782 148.557 387.094 148.557 387.094V371.908" stroke="#7285CA" stroke-width="3.43834" stroke-linecap="round" stroke-linejoin="round"/>
<path d="M189.282 743.169C189.282 740.877 193.485 731.326 195.586 726.837C196.446 722.253 196.159 720.247 196.446 717.668C196.732 715.09 192.721 708.786 191.575 704.488C190.658 701.05 188.518 701.909 187.85 702.769C186.322 704.201 183.036 707.869 182.119 711.078C181.202 714.287 176.389 715.089 174.096 715.09C174.001 714.516 173.581 712.74 172.664 710.218C171.518 707.067 156.045 708.786 156.045 711.078V715.949V720.533C156.045 722.826 150.314 730.562 149.741 731.422C149.168 732.281 151.747 736.866 147.163 738.871C142.578 740.877 139.999 748.04 139.999 748.9V759.215C141.146 766.951 150.028 765.805 162.635 765.805C181.807 765.805 189.282 746.035 189.282 743.169Z" fill="#6F7E9B" stroke="#132953" stroke-width="3.43834"/>
<path d="M152.5 718.719C159 717.967 162.8 719.419 164 722.219M154 722.219C156 720.052 160.5 716.019 162.5 717.219" stroke="#132953" stroke-width="3.43834" stroke-linecap="round"/>
<path d="M149 728.437C155.5 727.685 159.3 729.137 160.5 731.937M150.5 731.937C152.5 729.771 157 725.737 159 726.937" stroke="#132953" stroke-width="3.43834" stroke-linecap="round"/>
<path d="M174.646 134.801C180.663 147.121 180.95 153.138 178.657 172.622" stroke="#670E00" stroke-width="3.43834" stroke-linecap="round" stroke-linejoin="round"/>
</svg>
