<svg width="258" height="385" viewBox="0 0 258 385" fill="none" xmlns="http://www.w3.org/2000/svg">
<path fill-rule="evenodd" clip-rule="evenodd" d="M314.136 127.924C331.022 206.26 377.38 194.599 359.353 287.549C356.529 302.113 348.111 314.952 336.658 324.381L314.35 342.748C286.124 365.986 244.76 363.553 219.454 337.165L214.71 332.219C214.724 332.477 214.695 331.959 214.71 332.219C186.249 329.062 118.409 330.964 100.958 309.87C85.2173 290.842 116.789 243.469 116.789 216.977L98.3796 115.603C98.3796 55.6592 154.909 2.4245 214.71 2.4245H235.141C289.565 10.7338 303.821 80.0737 314.136 127.924Z" fill="#351605"/>
<path d="M116.677 143.996C125.831 158.796 125.333 175.692 117.684 180.424C110.034 185.156 94.6402 178.089 85.4858 163.289C76.3314 148.489 71.0384 135.952 84.5327 126.828C96.3608 118.831 107.523 129.196 116.677 143.996Z" fill="#ECCBB7"/>
<path d="M272.303 149.44C272.05 214.604 230.037 274.08 189.21 274.08C148.383 274.08 105.83 218.276 105.83 149.44C105.83 80.603 115.332 27.415 189.21 24.7999C253.966 22.5076 272.303 80.603 272.303 149.44Z" fill="#F5D0B9"/>
<path d="M99.5754 138.525C107.024 176.634 116.767 217.321 139.976 247.12C160.921 274.012 225.935 314.454 268.627 183.224" stroke="#670E00" stroke-width="3.43834" stroke-linecap="round" stroke-linejoin="round"/>
<path d="M162.856 121.79C165.528 119.417 144.627 115.527 142.659 114.361C132.31 111.161 126.059 114.556 120.7 115.773C115.34 116.99 115.142 117.444 116.012 117.226C120.596 116.08 132.19 117.191 136.928 117.799C141.667 118.408 159.517 124.756 162.856 121.79Z" fill="#670E00" stroke="#670E00" stroke-width="3.43834" stroke-linecap="round" stroke-linejoin="round"/>
<path d="M174.646 134.801C180.663 147.121 180.95 153.138 178.657 172.622" stroke="#670E00" stroke-width="3.43834" stroke-linecap="round" stroke-linejoin="round"/>
<path d="M171.208 193.252C171.208 194.972 171.552 198.926 176.365 198.696C176.747 198.696 178.084 197.55 180.663 198.696C182.822 199.656 186.107 199.556 188.686 198.123" stroke="#670E00" stroke-width="3.43834" stroke-linecap="round" stroke-linejoin="round"/>
<path opacity="0.8" d="M207.31 231.371C206.193 245.502 181.836 253.111 171.781 230.501L207.31 231.371Z" fill="#E29090" stroke="#E29090" stroke-width="3.43834" stroke-linecap="round" stroke-linejoin="round"/>
<path opacity="0.8" d="M205.591 229.044C204.582 242.61 182.582 249.914 173.5 228.209L205.591 229.044Z" fill="#E29090" stroke="#E29090" stroke-width="3.43834" stroke-linecap="round" stroke-linejoin="round"/>
<path opacity="0.8" d="M187.951 220.758C179.915 215.484 174.557 219.829 171.781 223.548C183.623 224.985 205.591 226.489 205.591 224.055C195.791 214.318 190.646 218.476 187.951 220.758Z" fill="#E29090" stroke="#E29090" stroke-width="3.43834" stroke-linecap="round" stroke-linejoin="round"/>
<path d="M162.325 226.776C169.083 227.888 168.296 225.689 178.371 226.203C182.271 226.402 183.727 228.153 188.686 228.495C192.395 228.752 194.061 227.141 198.428 227.063C205.545 226.935 215.089 228.035 217.052 226.776M217.052 226.776L214.76 224.198M217.052 226.776C217.816 227.445 219.402 228.782 219.631 228.782" stroke="#670E00" stroke-width="3.43834" stroke-linecap="round" stroke-linejoin="round"/>
<path d="M179.23 246.547C182.955 247.979 184.587 248.496 189.545 248.839C193.254 249.095 195.849 248.839 199.287 247.406" stroke="#670E00" stroke-width="3.43834" stroke-linecap="round" stroke-linejoin="round"/>
<path d="M211.608 137.379C216.288 133.845 224.215 126.778 235.103 128.497" stroke="#670E00" stroke-width="1.71917" stroke-linecap="round" stroke-linejoin="round"/>
<path d="M162.612 137.379C157.932 133.845 150.005 126.778 139.116 128.497" stroke="#670E00" stroke-width="1.71917" stroke-linecap="round" stroke-linejoin="round"/>
<path d="M246.174 135.249C228.583 128.301 217.396 136.172 212.127 143.727C210.547 145.993 211.966 148.937 214.68 149.452C232.285 152.796 242.885 146.564 247.798 140.825C249.425 138.926 248.5 136.167 246.174 135.249Z" fill="#F8F0EE" stroke="#670E00" stroke-width="3.43834" stroke-linecap="round" stroke-linejoin="round"/>
<path d="M127.186 135.249C144.777 128.301 155.964 136.172 161.233 143.727C162.813 145.993 161.394 148.937 158.68 149.452C141.075 152.796 130.475 146.564 125.562 140.825C123.936 138.926 124.86 136.167 127.186 135.249Z" fill="#F8F0EE" stroke="#670E00" stroke-width="3.43834" stroke-linecap="round" stroke-linejoin="round"/>
<circle cx="223.023" cy="141.677" r="8.0228" fill="#670E00" stroke="#670E00" stroke-width="3.43834" stroke-linecap="round" stroke-linejoin="round"/>
<circle cx="140.023" cy="141.677" r="8.0228" fill="#670E00" stroke="#670E00" stroke-width="3.43834" stroke-linecap="round" stroke-linejoin="round"/>
<path d="M245.705 135.66L248.284 133.655" stroke="#670E00" stroke-width="6.87668" stroke-linecap="round" stroke-linejoin="round"/>
<path d="M128.515 135.087L125.936 133.081" stroke="#670E00" stroke-width="6.87668" stroke-linecap="round" stroke-linejoin="round"/>
<path d="M107.312 180.645C97.4743 179.881 79.8624 171.19 88.1144 142.537C86.3952 123.626 96.9968 122.48 99.5755 138.239" stroke="#670E00" stroke-width="3.43834" stroke-linecap="round" stroke-linejoin="round"/>
<path d="M94.9908 149.414C92.8895 152.47 90.2344 160.302 96.4234 167.178" stroke="#670E00" stroke-width="3.43834" stroke-linecap="round" stroke-linejoin="round"/>
<path opacity="0.2" d="M236.25 181.791L241.883 177.879C244.965 175.739 247.531 172.937 249.393 169.679L252.295 164.6" stroke="#E592A6" stroke-width="25.7876" stroke-linecap="round" stroke-linejoin="round"/>
<path opacity="0.2" d="M199.575 150.152L201.592 143.597C202.695 140.01 204.586 136.714 207.125 133.951L211.083 129.643" stroke="#E592A6" stroke-width="12.6073" stroke-linecap="round" stroke-linejoin="round"/>
<path opacity="0.2" d="M174.407 150.152L172.391 143.597C171.287 140.01 169.397 136.714 166.858 133.951L162.9 129.643" stroke="#E592A6" stroke-width="12.6073" stroke-linecap="round" stroke-linejoin="round"/>
<path opacity="0.2" d="M145.993 185.803L138.543 182.632C134.597 180.953 131.145 178.296 128.512 174.911L126.509 172.336" stroke="#E592A6" stroke-width="25.7876" stroke-linecap="round" stroke-linejoin="round"/>
<circle cx="199.574" cy="230.788" r="2.0057" fill="white"/>
<path d="M120.206 437.088V381.788C126.509 344.826 151.367 388.981 143.704 397.547C138.833 402.991 140.472 437.794 139.117 467.747C137.814 496.555 138.543 502.29 138.543 502.852C138.543 503.998 137.97 504.284 137.684 505.431C137.397 506.577 136.251 508.582 135.965 501.706C135.678 494.829 133.959 493.683 132.526 493.11C131.094 492.537 130.521 498.461 130.521 500.273C130.521 502.852 131.667 505.431 133.386 510.302C134.762 514.198 133.959 517.656 133.386 518.897C130.234 515.173 123.3 507.264 120.779 505.431C117.627 503.138 125.936 481.649 125.65 477.637C125.363 473.626 120.206 442.819 120.206 437.088Z" fill="#FEDECA" stroke="#E1C3B0" stroke-width="3.43834" stroke-linecap="round" stroke-linejoin="round"/>
<circle cx="227.321" cy="137.379" r="2.0057" fill="white"/>
<circle cx="144.894" cy="139.672" r="2.0057" fill="white"/>
<path d="M194.703 198.41L195.276 198.696" stroke="#670E00" stroke-width="3.43834" stroke-linecap="round" stroke-linejoin="round"/>
<path fill-rule="evenodd" clip-rule="evenodd" d="M108.768 180.221C116.719 224.89 170.515 289.221 176.153 329.587C178.323 345.124 163.307 354.851 148.12 358.786L124.402 364.932C97.3363 371.946 68.6945 362.159 51.5798 340.05L26.2951 307.386C17.6538 296.222 12.3824 282.651 12.3001 268.535C11.7094 167.201 57.5015 211.779 60.9929 109.431C61.2818 100.964 62.4352 92.4007 64.746 84.2499C65.2117 82.6073 65.7598 81.1283 66.6473 79.6492L68.1263 76.3354C92.1651 27.1605 122.662 2.57306 159.618 2.57306C215.052 2.57306 299.557 17.7591 295.832 145.837C260.37 151.335 236.249 61.6221 223.975 42.6912C223.437 41.8619 222.282 42.2327 222.109 43.2059C217.287 70.3591 188.561 77.7531 175.49 81.3684C155.147 86.9953 143.53 81.6853 138.84 90.5373C134.66 98.4253 129.992 105.803 121.336 111.167C116.808 107.491 107.607 136.382 101.318 136.382C86.7769 136.382 87.2779 142.685 86.1314 155.006C86.1314 169.536 92.5075 179.934 107.048 179.934C107.449 179.934 108.371 180.238 108.768 180.221Z" fill="#351605"/>
<path d="M162.039 81.8306C179.592 85.0346 214.717 67.7579 221.366 31.3332C224.843 42.4116 228.788 67.0186 216.752 76.8198" stroke="#670E00" stroke-width="3.43834" stroke-linecap="round" stroke-linejoin="round"/>
<path d="M234.244 32.2234C235.726 40.6526 243.418 60.9345 262.323 74.6297" stroke="#670E00" stroke-width="3.43834" stroke-linecap="round" stroke-linejoin="round"/>
<path d="M145.141 79.9261C139.155 92.6252 121.891 117.79 100.722 116.855" stroke="#670E00" stroke-width="3.43834" stroke-linecap="round" stroke-linejoin="round"/>
<path d="M159.46 15.0317L126.223 23.0545" stroke="#670E00" stroke-width="3.43834" stroke-linecap="round" stroke-linejoin="round"/>
<path d="M262.037 15.3183C251.401 7.26652 240.385 3.11301 227.081 2.13807C211.889 1.02486 191.551 7.00893 191.551 7.00893" stroke="#670E00" stroke-width="3.43834" stroke-linecap="round" stroke-linejoin="round"/>
<path d="M121.352 15.3183C131.988 7.26652 143.004 3.11301 156.308 2.13807C171.499 1.02486 191.838 7.00893 191.838 7.00893" stroke="#670E00" stroke-width="3.43834" stroke-linecap="round" stroke-linejoin="round"/>
<path d="M266.586 235.086C266.586 235.086 264.456 245.691 264.517 252.564C264.632 265.618 272.826 284.942 272.826 284.942" stroke="#670E00" stroke-width="3.43834" stroke-linecap="round" stroke-linejoin="round"/>
<path d="M168.629 27.3524C127.942 35.3752 105.56 88.7549 97.1587 93.3199C89.667 99.0365 88.4594 104.327 89.635 107.687" stroke="#670E00" stroke-width="3.43834" stroke-linecap="round" stroke-linejoin="round"/>
<path d="M88.9739 78.313C81.6677 82.735 61.7958 125.877 61.7957 178.576C59.8895 219.245 16.6007 195.76 27.1053 283.969" stroke="#670E00" stroke-width="3.43834" stroke-linecap="round" stroke-linejoin="round"/>
<path d="M89.3688 257.127L84.5686 290.98" stroke="#670E00" stroke-width="3.43834" stroke-linecap="round" stroke-linejoin="round"/>
<path d="M115.695 296.551L115.08 315.751" stroke="#670E00" stroke-width="3.43834" stroke-linecap="round" stroke-linejoin="round"/>
<path d="M68.8537 216.748C68.8537 216.748 70.984 227.353 70.9231 234.226C70.8075 247.28 62.6138 266.604 62.6138 266.604" stroke="#670E00" stroke-width="3.43834" stroke-linecap="round" stroke-linejoin="round"/>
<path d="M172.338 289.102C175.318 287.497 179.311 279.264 180.934 275.348C186.951 274.775 199.043 273.973 199.272 275.348C199.559 277.067 205.576 284.804 212.452 289.961C215.578 292.306 203.337 295.992 191.822 295.405C180.807 294.844 170.517 290.082 172.338 289.102Z" fill="#E3C8B7"/>
<path d="M180.377 274.34C180.186 277.969 177.855 286.26 170.062 290.386" stroke="#670E00" stroke-width="3.43834" stroke-linecap="round" stroke-linejoin="round"/>
<path d="M199.288 274.34C199.479 277.969 204.101 284.827 211.895 288.953" stroke="#670E00" stroke-width="3.43834" stroke-linecap="round" stroke-linejoin="round"/>
<path d="M172.338 286.236C187.238 293.801 201.66 289.388 209.3 286.236C253.14 293.113 264.043 374.052 264.616 376.917C265.163 379.653 228.356 383.173 228.271 391.716L228.513 392.963C231.493 400.527 233.002 438.139 233.384 455.999C202.63 458.387 140.606 461.73 138.543 455.999C136.48 450.269 139.403 411.587 141.122 392.963L116.767 383.507C115.391 331.703 153.905 295.883 172.338 286.236Z" fill="#9FAEE3"/>
<path d="M141.122 392.963L116.767 383.507C115.391 331.703 153.905 295.883 172.338 286.236C187.238 293.801 201.66 289.388 209.3 286.236C253.14 293.113 264.043 374.052 264.616 376.917C265.189 379.783 224.788 383.507 228.513 392.963M141.122 392.963C139.403 411.587 136.48 450.269 138.543 455.999C140.606 461.73 202.63 458.387 233.384 455.999C233.002 438.139 231.493 400.527 228.513 392.963M141.122 392.963L144.274 376.917M228.513 392.963L224.502 372.333" stroke="#7285CA" stroke-width="3.43834" stroke-linecap="round" stroke-linejoin="round"/>
<path d="M248.555 429.214C248.555 424.63 252.011 398.311 252.011 381.788C245.708 344.826 228.212 368.619 228.212 388.527C228.212 395.832 231.745 437.794 233.1 467.747C234.403 496.555 228.194 512.181 228.194 512.743C228.194 513.889 230.504 518.324 230.79 519.47C231.077 520.617 232.223 522.622 232.509 515.746C232.796 508.869 234.515 504.284 235.948 503.711C237.38 503.138 240.246 509.729 240.819 511.448C241.392 513.167 237.667 516.892 235.948 521.763C234.572 525.66 235.375 529.117 235.948 530.359C239.1 526.634 246.034 518.726 248.555 516.892C251.707 514.6 243.684 489.385 243.971 485.374C244.257 481.362 248.555 434.945 248.555 429.214Z" fill="#FEDECA" stroke="#E1C3B0" stroke-width="3.43834" stroke-linecap="round" stroke-linejoin="round"/>
<path d="M221.621 370.189C230.504 355.863 204.254 292.964 211.894 289.812C255.734 296.689 264.043 374.052 264.616 376.917C265.189 379.782 225.633 387.094 225.633 387.094L221.621 370.189Z" fill="#9FAEE3"/>
<path d="M209.587 285.95C257.151 297.124 264.043 374.052 264.616 376.917C265.189 379.782 227.065 387.094 227.065 387.094V371.908" stroke="#7285CA" stroke-width="3.43834" stroke-linecap="round" stroke-linejoin="round"/>
<path d="M204.695 123.228C202.023 120.855 222.534 116.483 224.502 115.317C234.851 112.117 241.492 115.994 246.852 117.211C252.211 118.427 256.89 120.119 256.02 119.901C251.436 118.755 236.653 116.602 231.914 117.211C227.176 117.819 208.035 126.194 204.695 123.228Z" fill="#670E00" stroke="#670E00" stroke-width="3.43834" stroke-linecap="round" stroke-linejoin="round"/>
</svg>
